HIERARCHY
ROOT Hips
{
  OFFSET -4.35178 90.3298 111.633
  CHANNELS 6 Xposition Yposition Zposition Zrotation Xrotation Yrotation
  JOINT LeftUpLeg
  {
    OFFSET 0.103456 1.85784 10.5485
    CHANNELS 6 Xposition Yposition Zposition Zrotation Xrotation Yrotation
    JOINT LeftLeg
    {
      OFFSET 43.5 -4.2e-05 0
      CHANNELS 6 Xposition Yposition Zposition Zrotation Xrotation Yrotation
      JOINT LeftFoot
      {
        OFFSET 42.3722 1.9e-05 0
        CHANNELS 6 Xposition Yposition Zposition Zrotation Xrotation Yrotation
        JOINT LeftToe
        {
          OFFSET 17.3 0 0
          CHANNELS 6 Xposition Yposition Zposition Zrotation Xrotation Yrotation
          End Site
          {
            OFFSET 0 0 0
          }
        }
      }
    }
  }
  JOINT RightUpLeg
  {
    OFFSET 0.103456 1.85782 -10.5485
    CHANNELS 6 Xposition Yposition Zposition Zrotation Xrotation Yrotation
    JOINT RightLeg
    {
      OFFSET 43.5 -2.7e-05 0
      CHANNELS 6 Xposition Yposition Zposition Zrotation Xrotation Yrotation
      JOINT RightFoot
      {
        OFFSET 42.3723 0 0
        CHANNELS 6 Xposition Yposition Zposition Zrotation Xrotation Yrotation
        JOINT RightToe
        {
          OFFSET 17.3 0 1.7e-05
          CHANNELS 6 Xposition Yposition Zposition Zrotation Xrotation Yrotation
          End Site
          {
            OFFSET 0 0 0
          }
        }
      }
    }
  }
  JOINT Spine
  {
    OFFSET 6.90197 -2.60373 0
    CHANNELS 6 Xposition Yposition Zposition Zrotation Xrotation Yrotation
    JOINT Spine1
    {
      OFFSET 12.5881 0 0
      CHANNELS 6 Xposition Yposition Zposition Zrotation Xrotation Yrotation
      JOINT Spine2
      {
        OFFSET 12.3432 -1.8e-05 0
        CHANNELS 6 Xposition Yposition Zposition Zrotation Xrotation Yrotation
        JOINT Neck
        {
          OFFSET 25.8329 2.3e-05 0
          CHANNELS 6 Xposition Yposition Zposition Zrotation Xrotation Yrotation
          JOINT Head
          {
            OFFSET 11.7666 0 0
            CHANNELS 6 Xposition Yposition Zposition Zrotation Xrotation Yrotation
            End Site
            {
              OFFSET 0 0 0
            }
          }
        }
        JOINT LeftShoulder
        {
          OFFSET 19.7459 -1.48035 6.0001
          CHANNELS 6 Xposition Yposition Zposition Zrotation Xrotation Yrotation
          JOINT LeftArm
          {
            OFFSET 11.2841 1.8e-05 -2e-05
            CHANNELS 6 Xposition Yposition Zposition Zrotation Xrotation Yrotation
            JOINT LeftForeArm
            {
              OFFSET 33 -1.3e-05 1.9e-05
              CHANNELS 6 Xposition Yposition Zposition Zrotation Xrotation Yrotation
              JOINT LeftHand
              {
                OFFSET 25.2 3.2e-05 1.1e-05
                CHANNELS 6 Xposition Yposition Zposition Zrotation Xrotation Yrotation
                End Site
                {
                  OFFSET 0 0 0
                }
              }
            }
          }
        }
        JOINT RightShoulder
        {
          OFFSET 19.7461 -1.48036 -6.00008
          CHANNELS 6 Xposition Yposition Zposition Zrotation Xrotation Yrotation
          JOINT RightArm
          {
            OFFSET 11.2841 0 0
            CHANNELS 6 Xposition Yposition Zposition Zrotation Xrotation Yrotation
            JOINT RightForeArm
            {
              OFFSET 33.0001 1.6e-05 0
              CHANNELS 6 Xposition Yposition Zposition Zrotation Xrotation Yrotation
              JOINT RightHand
              {
                OFFSET 25.1998 0.000123 0.000432
                CHANNELS 6 Xposition Yposition Zposition Zrotation Xrotation Yrotation
                End Site
                {
                  OFFSET 0 0 0
                }
              }
            }
          }
        }
      }
    }
  }
}
MOTION
Frames:	8
Frame Time:	0.0333333
-67.3738 89.7159 -96.7222 -42.778 -83.75 -129.411 0.103456 1.85784 10.5485 5.52325 11.3838 -178.487 43.5 -4.2e-05 1e-05 -15.5187 -7.30621 -3.33046 42.3722 1.9e-05 -1.42109e-14 78.5702 4.79031 -4.79968 17.3 -7.10543e-15 3e-06 21.4546 -1e-06 0.003093 0.103456 1.85782 -10.5485 10.027 6.0699 173.199 43.5 -2.7e-05 4e-06 -6.96449 8.30988 2.75069 42.3723 0 1e-05 82.9641 18.9136 -7.4998 17.3 -6e-06 1.7e-05 21.4546 -1.9e-05 -0.003116 6.90197 -2.60373 -3e-06 7.4182 -0.0620183 0.107639 12.5881 1e-05 8e-06 4.82261 -0.0461007 0.247522 12.3432 -1.8e-05 -5e-06 4.50368 0.0395709 0.260961 25.8329 2.3e-05 7e-06 3.03333 -6.59361 1.102 11.7666 -8e-06 -6e-06 -16.8805 -16.5065 9.16009 19.7459 -1.48035 6.0001 174.604 -11.1621 -100.372 11.2841 1.8e-05 -2e-05 -2.62971 -26.5193 32.4064 33 -1.3e-05 1.9e-05 -16.9035 10.1709 -15.457 25.2 3.2e-05 1.1e-05 -1.2009 29.924 4.09004 19.7461 -1.48036 -6.00008 -170.811 -8.07718 80.5493 11.2841 0 -1e-06 20.3661 2.67368 -2.84733 33.0001 1.6e-05 -1e-06 -36.6194 9.2515 22.6679 25.1998 0.000123 0.000432 18.964 -10.9283 8.58454 
-67.3704 89.7161 -96.7206 -41.7541 -83.8526 -128.343 0.103456 1.85784 10.5485 5.4985 11.4127 -178.503 43.5 -4.2e-05 1e-05 -15.4832 -7.25363 -3.31447 42.3722 1.9e-05 -7.10543e-15 78.5678 4.85963 -4.87074 17.3 7.10543e-15 3e-06 21.4546 -1e-06 0.003093 0.103456 1.85782 -10.5485 10.0669 6.10708 173.208 43.5 -2.7e-05 4e-06 -6.95892 8.36725 2.76197 42.3723 0 1e-05 83.0169 18.9805 -7.60676 17.3 -6e-06 1.7e-05 21.4546 -1.9e-05 -0.003116 6.90197 -2.60373 -3e-06 7.42582 -0.0848971 0.0875136 12.5881 1e-05 8e-06 4.83863 -0.0944239 0.210702 12.3432 -1.8e-05 -5e-06 4.52055 -0.0106683 0.227208 25.8329 2.3e-05 7e-06 3.01721 -6.64328 1.13479 11.7666 -8e-06 -6e-06 -16.721 -16.5985 9.18595 19.7459 -1.48035 6.0001 174.614 -11.1724 -100.251 11.2841 1.8e-05 -2e-05 -2.94436 -26.4648 32.2988 33 -1.3e-05 1.9e-05 -16.9826 10.2046 -15.3953 25.2 3.2e-05 1.1e-05 -1.25536 29.953 4.075 19.7461 -1.48036 -6.00008 -170.83 -8.06739 80.541 11.2841 -7.10543e-15 -1e-06 20.3238 2.67352 -2.91599 33.0001 1.6e-05 -1e-06 -36.5429 9.29375 22.6593 25.1998 0.000123 0.000432 19.0216 -10.9072 8.58405 
-67.3258 89.7173 -96.7208 -40.8965 -83.9338 -127.455 0.103456 1.85784 10.5485 5.44512 11.435 -178.49 43.5 -4.2e-05 1e-05 -15.5136 -7.20753 -3.31328 42.3722 1.9e-05 7.10543e-15 78.5967 4.9361 -4.91904 17.3 -7.10543e-15 3e-06 21.4546 -1e-06 0.003093 0.103456 1.85782 -10.5485 10.0675 6.11955 173.209 43.5 -2.7e-05 4e-06 -6.99052 8.40907 2.77255 42.3723 0 1e-05 83.0479 19.0923 -7.67192 17.3 -6e-06 1.7e-05 21.4546 -1.9e-05 -0.003116 6.90197 -2.60373 -3e-06 7.4272 -0.102407 0.0640516 12.5881 1e-05 8e-06 4.84187 -0.132659 0.166394 12.3432 -1.8e-05 -5e-06 4.52454 -0.0515376 0.185379 25.8329 2.3e-05 7e-06 3.00493 -6.67075 1.1494 11.7666 -8e-06 -6e-06 -16.5871 -16.6559 9.20824 19.7459 -1.48035 6.0001 174.628 -11.1673 -100.128 11.2841 1.8e-05 -2e-05 -3.16429 -26.441 32.2353 33 -1.3e-05 1.9e-05 -17.1604 10.1998 -15.3257 25.2 3.2e-05 1.1e-05 -1.36285 29.9419 4.07815 19.7461 -1.48036 -6.00008 -170.858 -8.054 80.5249 11.2841 -7.10543e-15 -1e-06 20.2243 2.68434 -3.05202 33.0001 1.6e-05 -1e-06 -36.4587 9.27168 22.6671 25.1998 0.000123 0.000432 18.9822 -10.9147 8.57282 
-67.3138 89.7198 -96.6993 -40.3158 -83.992 -126.856 0.103456 1.85784 10.5485 5.30799 11.4482 -178.439 43.5 -4.2e-05 1e-05 -15.7002 -7.15691 -3.33732 42.3722 1.9e-05 -1.42109e-14 78.638 4.97213 -4.95921 17.3 -7.10543e-15 3e-06 21.4546 -1e-06 0.003093 0.103456 1.85782 -10.5485 10.0314 6.14472 173.199 43.5 -2.7e-05 4e-06 -7.06143 8.39562 2.79834 42.3723 0 1e-05 83.0377 19.2777 -7.63904 17.3 -6e-06 1.7e-05 21.4546 -1.9e-05 -0.003116 6.90197 -2.60373 -3e-06 7.44612 -0.110848 0.0455211 12.5881 1e-05 8e-06 4.88021 -0.151708 0.130738 12.3432 -1.8e-05 -5e-06 4.56331 -0.0721679 0.151016 25.8329 2.3e-05 7e-06 2.93237 -6.67283 1.1769 11.7666 -8e-06 -6e-06 -16.4866 -16.6706 9.196 19.7459 -1.48035 6.0001 174.671 -11.2009 -99.8999 11.2841 1.8e-05 -2e-05 -3.48593 -26.2849 32.1539 33 -1.3e-05 1.9e-05 -17.5633 10.4195 -15.2145 25.2 3.2e-05 1.1e-05 -1.29265 30.1668 3.97167 19.7461 -1.48036 -6.00008 -170.819 -8.06241 80.3572 11.2841 1.42109e-14 -1e-06 20.1809 2.49335 -3.00742 33.0001 1.6e-05 -1e-06 -36.6639 9.265 22.617 25.1998 0.000123 0.000432 19.0117 -10.9081 8.58593 
-67.3048 89.7268 -96.6655 -39.9169 -84.0358 -126.448 0.103456 1.85784 10.5485 5.04369 11.4282 -178.342 43.5 -4.2e-05 1e-05 -16.1558 -7.10431 -3.39553 42.3722 1.9e-05 0 78.7446 4.97746 -4.9894 17.3 0 3e-06 21.4546 -1e-06 0.003093 0.103456 1.85782 -10.5485 9.84331 6.18672 173.193 43.5 -2.7e-05 4e-06 -7.43339 8.31289 2.78169 42.3723 1.42109e-14 1e-05 83.1586 19.4476 -7.49189 17.3 -6e-06 1.7e-05 21.4546 -1.9e-05 -0.003116 6.90197 -2.60373 -3e-06 7.47384 -0.106661 0.0107037 12.5881 1e-05 8e-06 4.93544 -0.143594 0.0605015 12.3432 -1.8e-05 -5e-06 4.61868 -0.067574 0.0805134 25.8329 2.3e-05 7e-06 2.88669 -6.59171 1.11787 11.7666 -8e-06 -6e-06 -16.4049 -16.6095 9.30302 19.7459 -1.48035 6.0001 174.801 -11.1678 -99.585 11.2841 1.8e-05 -2e-05 -3.89928 -25.9192 31.9695 33 -1.3e-05 1.9e-05 -18.4003 10.684 -14.9519 25.2 3.2e-05 1.1e-05 -1.41468 30.384 3.94636 19.7461 -1.48036 -6.00008 -170.931 -8.0204 80.3466 11.2841 0 -1e-06 19.8064 2.63793 -3.51431 33.0001 1.6e-05 -1e-06 -36.3719 9.04176 22.7227 25.1998 0.000123 0.000432 18.7979 -11.0161 8.64034 
-67.298 89.6909 -96.6044 -39.3793 -84.1022 -125.912 0.103456 1.85784 10.5485 4.39669 11.307 -178.118 43.5 -4.2e-05 1e-05 -17.3738 -7.04397 -3.52065 42.3722 1.9e-05 1.42109e-14 79.2272 5.08855 -4.92072 17.3 -7.10543e-15 3e-06 21.4546 -1e-06 0.003093 0.103456 1.85782 -10.5485 9.32869 6.31232 173.276 43.5 -2.7e-05 4e-06 -8.41088 8.1855 2.67363 42.3723 1.42109e-14 1e-05 83.5043 19.82 -7.37992 17.3 -6e-06 1.7e-05 21.4546 -1.9e-05 -0.003116 6.90197 -2.60373 -3e-06 7.52362 -0.10293 0.00268926 12.5881 1e-05 8e-06 5.03499 -0.140269 0.0444971 12.3432 -1.8e-05 -5e-06 4.71824 -0.0637405 0.064482 25.8329 2.3e-05 7e-06 2.80292 -6.59156 1.10623 11.7666 -8e-06 -6e-06 -16.4553 -16.598 9.26805 19.7459 -1.48035 6.0001 174.812 -11.1039 -99.3843 11.2841 1.8e-05 -2e-05 -3.52447 -26.0638 32.5137 33 -1.3e-05 1.9e-05 -19.9327 10.4737 -14.6596 25.2 3.2e-05 1.1e-05 -1.88458 30.3322 3.79338 19.7461 -1.48036 -6.00008 -170.836 -8.06018 80.1853 11.2841 0 -1e-06 19.6648 2.5764 -3.86051 33.0001 1.6e-05 -1e-06 -36.6774 8.86702 22.7408 25.1998 0.000123 0.000432 18.5884 -11.0636 8.72528 
-67.269 89.646 -96.5014 -37.9755 -84.2542 -124.573 0.103456 1.85784 10.5485 3.22767 11.1396 -177.684 43.5 -4.2e-05 1e-05 -19.4826 -6.89609 -3.80662 42.3722 1.9e-05 0 79.9861 5.1764 -4.85411 17.3 0 3e-06 21.4546 -1e-06 0.003093 0.103456 1.85782 -10.5485 8.47688 6.33523 173.522 43.5 -2.7e-05 4e-06 -9.94283 8.06427 2.4576 42.3723 0 1e-05 83.9273 20.1488 -7.35924 17.3 -6e-06 1.7e-05 21.4546 -1.9e-05 -0.003116 6.90197 -2.60373 -3e-06 7.57649 -0.113197 0.0248579 12.5881 1e-05 8e-06 5.14085 -0.156263 0.090416 12.3432 -1.8e-05 -5e-06 4.82414 -0.0752585 0.111465 25.8329 2.3e-05 7e-06 2.74586 -6.67146 1.12546 11.7666 -8e-06 -6e-06 -16.5316 -16.6044 9.12219 19.7459 -1.48035 6.0001 174.772 -10.8892 -99.072 11.2841 1.8e-05 -2e-05 -2.5407 -26.4748 33.5009 33 -1.3e-05 1.9e-05 -21.9681 9.89464 -14.3272 25.2 3.2e-05 1.1e-05 -2.15472 30.0497 3.70727 19.7461 -1.48036 -6.00008 -170.763 -8.07489 80.0498 11.2841 0 -1e-06 19.4105 2.58306 -4.40533 33.0001 1.6e-05 -1e-06 -36.917 8.60629 22.7691 25.1998 0.000123 0.000432 18.071 -11.1473 8.78405 
-67.335 89.5937 -96.3654 -34.5793 -84.5343 -121.233 0.103456 1.85784 10.5485 1.31386 10.9864 -177.028 43.5 -4.2e-05 1e-05 -22.9105 -6.46689 -4.31245 42.3722 1.9e-05 0 80.5922 5.30616 -4.75162 17.3 0 3e-06 21.4546 -1e-06 0.003093 0.103456 1.85782 -10.5485 7.59824 6.17939 173.74 43.5 -2.7e-05 4e-06 -11.5503 8.05734 2.27159 42.3723 0 1e-05 84.4577 20.3625 -7.44097 17.3 -6e-06 1.7e-05 21.4546 -1.9e-05 -0.003116 6.90197 -2.60373 -3e-06 7.65298 -0.171122 0.0691817 12.5881 1e-05 8e-06 5.29503 -0.263466 0.1877 12.3432 -1.8e-05 -5e-06 4.97955 -0.173902 0.215421 25.8329 2.3e-05 7e-06 2.53692 -6.93776 1.25987 11.7666 -8e-06 -6e-06 -16.5219 -16.7824 8.76652 19.7459 -1.48035 6.0001 174.744 -10.7097 -98.4587 11.2841 1.8e-05 -2e-05 -1.93905 -26.6401 34.3337 33 -1.3e-05 1.9e-05 -24.271 9.18032 -13.8564 25.2 3.2e-05 1.1e-05 -2.90255 29.4155 4.01871 19.7461 -1.48036 -6.00008 -170.482 -8.14401 79.6127 11.2841 2.13163e-14 -1e-06 19.2784 2.02462 -4.53491 33.0001 1.6e-05 -1e-06 -37.7009 8.51897 22.5592 25.1998 0.000123 0.000432 17.4099 -11.1291 8.76776 
